<?xml version="1.0" encoding="iso-8859-1"?>
<!-- Generator: Adobe Illustrator 19.0.0, SVG Export Plug-In . SVG Version: 6.00 Build 0)  -->
<svg version="1.1" id="Layer_1" xmlns="http://www.w3.org/2000/svg" xmlns:xlink="http://www.w3.org/1999/xlink" x="0px" y="0px"
	 viewBox="0 0 32 32" style="enable-background:new 0 0 32 32;" xml:space="preserve">
<g>
	<g>
		<path d="M476.27,352.102l-14.746-8.61c-8.132-4.71-18.611-1.971-23.339,6.144l-0.009,0.009l-11.742-6.861l15.07-3.985
			c4.565-1.212,7.279-5.888,6.067-10.436c-1.203-4.557-5.862-7.262-10.428-6.067l-31.514,8.354l-9.199-5.376l3.2-4.804
			c2.62-3.925,1.562-9.216-2.364-11.836c-3.942-2.611-9.225-1.553-11.836,2.372l-3.772,5.649l-28.809-16.811l38.391-10.146
			c4.548-1.212,7.27-5.879,6.067-10.436c-1.203-4.557-5.888-7.27-10.436-6.067l-54.844,14.498l-9.395-5.487
			c3.908-3.9,8.405-7.279,13.542-9.856l17.408-8.721c2.884-1.442,4.702-4.395,4.702-7.629s-1.818-6.178-4.702-7.62l-17.408-8.738
			c-5.137-2.569-9.626-5.948-13.542-9.839l9.395-5.487l54.844,14.498c0.734,0.188,1.468,0.282,2.193,0.282
			c3.772,0,7.236-2.526,8.243-6.349c1.203-4.557-1.519-9.225-6.067-10.436l-38.391-10.146l28.809-16.819l3.772,5.658
			c1.647,2.466,4.352,3.797,7.108,3.797c1.63,0,3.268-0.461,4.727-1.434c3.925-2.611,4.983-7.902,2.364-11.827l-3.2-4.804
			l9.199-5.376l31.514,8.354c0.734,0.188,1.468,0.282,2.193,0.282c3.772,0,7.219-2.526,8.235-6.349
			c1.212-4.548-1.502-9.224-6.067-10.436l-15.07-3.994l11.742-6.852l0.009,0.009c3.166,5.419,8.892,8.457,14.763,8.457
			c2.918,0,5.879-0.751,8.576-2.33l14.746-8.593c8.124-4.745,10.871-15.215,6.127-23.347l-8.602-14.737
			c-4.736-8.132-15.223-10.889-23.339-6.135l-14.754,8.61c-8.107,4.744-10.863,15.215-6.118,23.33l-11.742,6.852l3.934-15.087
			c1.195-4.557-1.545-9.216-6.11-10.402c-4.506-1.161-9.225,1.536-10.411,6.101l-8.218,31.531l-10.086,5.888l-4.386-6.571
			c-2.611-3.925-7.91-4.984-11.827-2.372c-3.925,2.62-4.983,7.91-2.372,11.836l3.814,5.726l-27.93,16.307l10.052-38.417
			c1.186-4.557-1.545-9.224-6.101-10.419c-4.54-1.152-9.216,1.545-10.419,6.101l-14.353,54.886l-10.786,6.289
			c-3.465-7.057-5.444-14.908-5.444-23.151V179.2c0-3.277-1.886-6.263-4.838-7.688c-2.953-1.425-6.46-1.033-9.028,1.032
			l-4.548,3.635c-7.27,5.82-15.625,9.438-24.252,10.871v-12.954l40.158-40.055c3.345-3.319,3.345-8.73,0.017-12.066
			c-3.319-3.337-8.721-3.337-12.066-0.017l-28.109,28.041v-30.532h8.533c4.719,0,8.533-3.814,8.533-8.533
			c0-4.71-3.814-8.533-8.533-8.533h-8.533V88.892l23.091-22.997c3.337-3.328,3.354-8.73,0.026-12.075
			c-3.32-3.328-8.73-3.362-12.075-0.026l-11.042,10.999V51.2c9.412,0,17.067-7.654,17.067-17.067V17.067
			C281.599,7.663,273.945,0,264.532,0h-17.067c-9.404,0-17.067,7.663-17.067,17.067v17.067c0,9.412,7.663,17.067,17.067,17.067
			v13.594l-11.042-10.999c-3.336-3.328-8.747-3.294-12.075,0.026c-3.319,3.345-3.302,8.747,0.026,12.075l23.091,22.997V102.4h-8.533
			c-4.719,0-8.533,3.823-8.533,8.533c0,4.719,3.814,8.533,8.533,8.533h8.533v30.532l-28.109-28.041
			c-3.328-3.311-8.73-3.328-12.066,0.017c-3.319,3.336-3.319,8.747,0.017,12.066l40.158,40.055v12.954
			c-8.627-1.434-16.981-5.052-24.252-10.863l-4.548-3.644c-2.568-2.074-6.076-2.458-9.02-1.032
			c-2.961,1.425-4.847,4.412-4.847,7.688v13.457c0,8.26-1.988,16.128-5.47,23.202l-10.752-6.272l-14.362-54.886
			c-1.195-4.557-5.871-7.253-10.419-6.101c-4.557,1.195-7.287,5.862-6.093,10.419l10.044,38.417l-27.93-16.307l3.814-5.726
			c2.62-3.925,1.562-9.216-2.364-11.836c-3.934-2.611-9.233-1.553-11.836,2.372l-4.386,6.571l-10.078-5.888l-8.226-31.531
			c-1.195-4.565-5.897-7.262-10.411-6.101c-4.565,1.186-7.296,5.845-6.11,10.402l3.942,15.087l-11.75-6.852
			c4.745-8.115,1.997-18.586-6.127-23.339l-14.746-8.602c-8.107-4.753-18.594-1.997-23.33,6.135l-8.619,14.737
			c-4.736,8.132-1.98,18.603,6.144,23.347l14.737,8.602c2.705,1.57,5.658,2.321,8.576,2.321c5.879,0,11.597-3.038,14.771-8.457
			v-0.009l11.742,6.852l-15.07,3.994c-4.557,1.212-7.279,5.888-6.067,10.436c1.016,3.823,4.463,6.349,8.243,6.349
			c0.725,0,1.459-0.094,2.193-0.282l31.505-8.354l9.207,5.376l-3.208,4.804c-2.611,3.925-1.553,9.216,2.372,11.827
			c1.451,0.973,3.098,1.434,4.719,1.434c2.756,0,5.47-1.331,7.108-3.797l3.772-5.658l28.817,16.819l-38.391,10.146
			c-4.557,1.212-7.279,5.88-6.067,10.436c1.007,3.823,4.463,6.349,8.235,6.349c0.725,0,1.459-0.094,2.193-0.282l54.844-14.498
			l9.353,5.461c-3.917,3.891-8.422,7.279-13.568,9.839l-17.536,8.755c-2.901,1.442-4.727,4.395-4.727,7.629s1.826,6.195,4.727,7.637
			l17.536,8.747c5.146,2.569,9.651,5.948,13.568,9.847l-9.353,5.461l-54.844-14.498c-4.54-1.195-9.225,1.51-10.428,6.067
			c-1.212,4.557,1.51,9.225,6.067,10.436l38.391,10.146l-28.817,16.811l-3.772-5.649c-2.603-3.925-7.91-4.983-11.827-2.372
			c-3.925,2.62-4.983,7.91-2.372,11.836l3.208,4.804l-9.207,5.376l-31.505-8.354c-4.557-1.186-9.225,1.51-10.436,6.067
			c-1.212,4.548,1.51,9.224,6.067,10.436l15.07,3.985l-11.742,6.861v-0.009c-4.745-8.115-15.206-10.88-23.347-6.135l-14.737,8.602
			c-8.124,4.745-10.88,15.206-6.135,23.339l8.61,14.746c3.166,5.436,8.892,8.457,14.763,8.457c2.918,0,5.879-0.751,8.567-2.321
			l14.763-8.61c8.107-4.753,10.854-15.215,6.11-23.33l11.75-6.861l-3.942,15.087c-1.186,4.565,1.545,9.216,6.11,10.411
			c0.717,0.188,1.442,0.273,2.159,0.273c3.789,0,7.253-2.543,8.252-6.383l8.226-31.531l10.078-5.879l4.386,6.571
			c1.647,2.466,4.352,3.797,7.108,3.797c1.63,0,3.268-0.461,4.727-1.434c3.925-2.611,4.984-7.902,2.364-11.827l-3.814-5.726
			l27.93-16.307l-10.044,38.417c-1.195,4.557,1.536,9.224,6.093,10.411c0.725,0.188,1.451,0.282,2.167,0.282
			c3.789,0,7.245-2.543,8.252-6.383l14.362-54.878l10.752-6.281c3.482,7.083,5.47,14.95,5.47,23.211V332.8
			c0,3.285,1.886,6.272,4.847,7.697c2.944,1.417,6.46,1.024,9.02-1.033l4.548-3.635c7.27-5.82,15.625-9.438,24.252-10.871v12.945
			l-40.158,40.055c-3.337,3.328-3.337,8.738-0.017,12.066c3.328,3.345,8.73,3.345,12.066,0.017l28.109-28.032v30.524h-8.533
			c-4.719,0-8.533,3.823-8.533,8.533c0,4.719,3.814,8.533,8.533,8.533h8.533v13.517l-23.091,22.997
			c-3.328,3.319-3.345,8.73-0.026,12.075c3.319,3.311,8.73,3.345,12.075,0.026l11.042-10.999V460.8
			c-9.404,0-17.067,7.663-17.067,17.067v17.067c0,9.412,7.663,17.067,17.067,17.067h17.067c9.412,0,17.067-7.654,17.067-17.067
			v-17.067c0-9.404-7.654-17.067-17.067-17.067v-13.585l11.042,10.999c1.664,1.656,3.849,2.483,6.025,2.483
			c2.193,0,4.386-0.845,6.05-2.509c3.328-3.345,3.311-8.755-0.026-12.075l-23.091-22.997V409.6h8.533
			c4.719,0,8.533-3.814,8.533-8.533c0-4.71-3.814-8.533-8.533-8.533h-8.533V362.01l28.109,28.032
			c1.664,1.664,3.84,2.492,6.024,2.492c2.185,0,4.378-0.828,6.042-2.509c3.328-3.328,3.328-8.738-0.017-12.066l-40.158-40.055
			v-12.945c8.627,1.434,16.981,5.052,24.252,10.863l4.548,3.644c1.545,1.237,3.439,1.869,5.333,1.869
			c1.263,0,2.517-0.273,3.695-0.836c2.953-1.425,4.838-4.412,4.838-7.697v-13.525c0-8.235,1.98-16.085,5.444-23.151l10.786,6.298
			l14.353,54.878c1.007,3.84,4.471,6.383,8.252,6.383c0.717,0,1.442-0.094,2.167-0.282c4.557-1.186,7.287-5.854,6.101-10.411
			l-10.052-38.417l27.93,16.307l-3.814,5.726c-2.611,3.925-1.553,9.216,2.372,11.827c1.451,0.973,3.098,1.434,4.719,1.434
			c2.756,0,5.47-1.331,7.108-3.797l4.386-6.571l10.086,5.879l8.218,31.531c1.007,3.84,4.471,6.383,8.252,6.383
			c0.717,0,1.442-0.085,2.159-0.273c4.565-1.195,7.305-5.845,6.11-10.411l-3.934-15.087l11.742,6.861
			c-4.745,8.115-1.988,18.577,6.135,23.339l14.737,8.602c2.696,1.57,5.649,2.321,8.567,2.321c5.879,0,11.605-3.021,14.771-8.457
			l8.61-14.746C487.141,367.309,484.394,356.847,476.27,352.102z M204.492,273.374c-5.82-6.579-12.911-12.151-21.129-16.256
			L181.136,256l2.227-1.109c8.218-4.104,15.309-9.677,21.129-16.265l18.065,10.547c-0.452,2.21-0.691,4.489-0.691,6.827
			s0.239,4.625,0.691,6.835L204.492,273.374z M247.466,307.704c-8.883,1.109-17.604,3.934-25.668,8.516
			c-0.444-10.231-3.191-19.942-7.689-28.698l16.102-9.404c4.471,5.205,10.419,9.028,17.254,10.803V307.704z M247.466,223.078
			c-6.835,1.783-12.783,5.606-17.254,10.812l-16.102-9.404c4.497-8.755,7.245-18.475,7.689-28.698
			c8.064,4.574,16.785,7.407,25.668,8.516V223.078z M264.532,204.305c8.883-1.101,17.604-3.934,25.668-8.516
			c0.444,10.232,3.174,19.951,7.671,28.715l-16.085,9.387c-4.471-5.205-10.419-9.028-17.254-10.812V204.305z M290.201,316.22
			c-8.064-4.582-16.785-7.415-25.668-8.525v-18.773c6.835-1.775,12.783-5.598,17.254-10.803l16.077,9.387
			C293.375,296.269,290.644,305.988,290.201,316.22z M307.463,273.348l-18.022-10.513c0.452-2.21,0.691-4.497,0.691-6.835
			s-0.239-4.617-0.691-6.827l18.022-10.522c5.811,6.579,12.877,12.151,21.06,16.247l2.193,1.101l-2.193,1.092
			C320.332,261.197,313.275,266.769,307.463,273.348z"/>
	</g>
</g>
<g>
</g>
<g>
</g>
<g>
</g>
<g>
</g>
<g>
</g>
<g>
</g>
<g>
</g>
<g>
</g>
<g>
</g>
<g>
</g>
<g>
</g>
<g>
</g>
<g>
</g>
<g>
</g>
<g>
</g>
</svg>
